<?xml version="1.0" encoding="UTF-8"?>
<svg version="1.1" viewBox="0 0 2048 663" width="497" height="161" xmlns="http://www.w3.org/2000/svg">
<path transform="translate(0)" d="m0 0h2048v663h-2048z" fill="#054F9F"/>
<path transform="translate(0,439)" d="m0 0h2048v224h-2048z" fill="#FDE805"/>
<path transform="translate(1018,99)" d="m0 0 4 1 7 9 10 16 18 27 13 21 2 4v4l-10 6-22 9 20 3 16 5 10 5 10 8 7 8 8 16 2 8 1 13-2 15-5 14-9 16-12 17-11 13h-2l4 5 11 9 3 3-1 5-5 2-29 1-79 1 1-48-3 7-7 11-8 9-10 7-16 8-13 4-15 2-14-1-16-4-16-7-12-9-11-11-9-13-8-16-8-20-23 3-6 1 1-5 12-18 13-20 20-30 9-11 3-3 5 2 17 9v-3l-3-13-1-15 4-16 8-15 9-12 11-10 14-8 16-6 16-3h32l19 3 17 4 2 1 7-14z" fill="#F3B456"/>
<path transform="translate(156,153)" d="m0 0 17 2 19 5 21 9 40 20 3 1 184 2 1 2v11l-1 3-19 2-1 73-3 1h-14l-1-1v-40l-19 1v11l-3 9-5 6-5 2h-14l-6-4-5-6-3-12 1-10 4-7 5-4 9-3h41v-17h-76l-1 74-3 1h-14l-1-1v-9l1-10-13 3h-14l-10-4-9-7-7-8-4-6 1-7 5-6h12l5-4 1-2-1-9-3-4-8-1-29 1v19l-1 1-30 1-8 1 2 5 12-1h10l9 3 5 4 4 6 1 4v8l-3 8-6 8-9 6-9 2h-14l-11-3-10-6-5-6 6-7 4-4 5 1 6 5 5 2h12l8-3 3-4-1-5-1-1h-26l-8-3-5-6-2-7v-7l3-8 4-5 6-3 6-1 18-1 2-4h-66v74l-3 1h-15v-75h-30v21l-32 1-8 1 2 5 13-1h14l10 4 7 8 2 6v7l-4 10-6 7-9 5-7 2 4 7 5 8-1 4-11 7-4-1-14-22-7-6-9-6-5-6 5-5 7-8 4 2 7 6 5 2h10l8-3 3-3-1-6-3-1-14 1h-10l-10-3-7-8-1-3v-13l4-8 6-5 4-1h24v-4l-27-1h-13l-3-2v-10l1-5h82l-2-10 1-10 3-6 5-5 6-4 11-3z" fill="#FEFDFE"/>
<path transform="translate(258,516)" d="m0 0h402v12l-1 1-21-1 3 19-1 1-18 1-9 3-3 3 1 9 2 4 4 2 7-1 4-4 3-6 7-3h4l4 15 4 14 1 6-4 2h-10l-1-1v-13l-10 3h-12l-9-4-6-7-2-6v-9l3-9 4-5 8-5 3-1 11-1 1-7h-41l1 33v24h-14v-57h-18l1 11v46h-13l-1-1 1-12-10 4-10-1-8-4-5-6-3-10 2-9 5-5 7-5 3-1h17l2 1 1-8h-50l1 20v36l-2 2-10-1v-57l-25 1 3 2 2 8v5l-1 1h-18l-9 2-3 3v5l10-4h12l9 4 4 6v11l-5 8-3 2-7-3-2-2 1-5 4-6-1-3h-7l-9 3-1 1v9l5 7 13 8-1 5-3 3-7-1-11-6-7-8-4-10 1-8 2-4-1-5-3-5v-7l4-6 10-5 14-1 1-5h-41l1 57h-14v-56h-18l1 56h-14v-26l-6 4-6 5h-7l-4-5v-5l4-3h3l-1-3-7-1-8 1 2 13 6 9 5 5 1 4-7 3-5-1-7-7-7-11-2-10 3-10 7-7 4-2h13l8 4 9 6 2 1v-18l1-2h-67l2 8v9l-16-1-16 1 1 5h22l11 3 4 6v9l-4 8-4 5-9 3h-5l3 5 6 5 1 4-5 4-6 2-5-6-7-11-7-7-8-6 2-4 6-4 4 1 3 4h16l4-1 2-5v-3l-20 1-9-3-5-5-2-4v-8l4-6 5-4 12-1 9 1 1-6h-34l-1-2v-7l1-2z" fill="#061895"/>
<path transform="translate(516,149)" d="m0 0 4 1 3 5 14 34 12 2 110 1 1 1v14l-1 1-52 1v16l7-2h12l10 4 6 7 3 9-1 13-5 12-6 8-4-1-8-10 1-6 4-6 1-7-2-5-6-1-9 5-2 3-1 35-4 1h-13l-1-1v-23l-12 4h-10l-9-4-6-7-3-7v-12l4-8 7-6 8-3h17l4 1v-9h-47l-11 1v71l-3 3h-15l-1-1v-12l1-3-12 3h-14l-10-5-8-9-3-11v-8l4-9 7-8 11-5h19l5 1v-8h-49l-2-1v-17l37-1-13-12-9-7 2-5 8-8 4 2 7 7 8 7 13 13-2-6-11-25v-3z" fill="#FEFDFE"/>
<path transform="translate(1692,177)" d="m0 0h33l13 2 9 4 6 5 4 7 1 5v10l-4 11-5 5 2 4 6 7 2 5 1 11-2 10-5 8-6 5-11 4-13 1h-40l-1-1v-101l1-1z" fill="#FFFEFF"/>
<path transform="translate(171,498)" d="m0 0 5 1 16 13 1 5-4 7 9 5 5 5 5 6 8 16 8 20 5 13-1 5-5 3-13 6-7-1-5-7-5 2-5 4-3 1h-18l-42-5-6-2-2-3 2-16 3-7 1-1 8-1 3-16 4-9 7-11 10-13 12-15z" fill="#03A8EE"/>
<path transform="translate(1409,177)" d="m0 0 15 1 1 16v85l-1 1-11 1h-9l-3-3-5 2-7 3h-11l-9-3-6-5-5-9-2-9v-29l4-10 7-8 8-4 9-1 9 2 8 4 1-33z" fill="#FEFDFE"/>
<path transform="translate(1947,177)" d="m0 0 13 1v54l5-5 11-13 8-7h20l-1 4-11 12-8 11 1 5 13 23 9 15v3l-19 1-5-2-10-17-5-10-5 4-2 4-1 20-6 1h-15l-1-1v-102z" fill="#FFFEFF"/>
<path transform="translate(1511,205)" d="m0 0 13 1 11 4 6 5 3 6 1 7v52l-8 1h-12l-1-4-10 5-5 1h-11l-10-4-5-6-3-7v-14l5-8 6-5 7-2 26-3-2-8-5-2h-15l-11 3-3-3-4-6 1-5 6-4 10-3z" fill="#FEFDFE"/>
<path transform="translate(1794,206)" d="m0 0h22l11 4 6 5 3 7 1 18v39l-1 1-8 1h-10l-2-3-5 2-10 3h-10l-9-3-7-6-3-7v-15l3-6 8-7 14-3 20-1-4-8-4-3h-15l-8 3-5-1-5-8v-5l6-4z" fill="#FEFDFE"/>
<path transform="translate(1312,205)" d="m0 0 11 1 10 5 6 7 2 6v56l-5 1h-16l-1-4-1-46-4-5-2-1h-6l-6 3-1 3-1 49-6 1h-15l-1-1-1-8v-48l1-16h21l2 2 4-1 5-3z" fill="#FEFDFE"/>
<path transform="translate(1887,206)" d="m0 0h15l9 4 7 8 3 14v48l-6 1h-15l-1-1-1-47-4-6-3-2h-7l-5 2-2 16-1 37-7 1h-14l-1-4v-68l1-1h20v3l6-2z" fill="#FEFDFE"/>
<path transform="translate(1595,206)" d="m0 0h15l8 3 6 5 3 5 1 4v57l-6 1h-14l-1-1-1-48-3-5-4-2h-6l-6 3-1 6-1 46-4 1h-17l-1-1v-72l17-1 5 2 6-1z" fill="#FFFEFF"/>
<path transform="translate(1240,177)" d="m0 0h10l7 2v81l-1 20-3 1h-18l-1-2v-101z" fill="#FFFEFF"/>
<path transform="translate(1618,520)" d="m0 0h14l10 4 5 5 4 6 3 11v14l-4 12-7 8-7 4-14 2-5-1-2-7-1-44 1-12z" fill="#122794"/>
<path transform="translate(1523,520)" d="m0 0h20l6 3 5 8v16l-5 3 1 5 4 3 1 9-3 11-3 5-4 2h-24l-1-1-1-7v-56z" fill="#061795"/>
<path transform="translate(1482,520)" d="m0 0h14l2 1 15 60-1 4-9 1-5-2-1-6h-12l-6-1-1 8-3 1h-11v-7l11-41 5-16z" fill="#132794"/>
<path transform="translate(1580,520)" d="m0 0h12l2 2 8 32 7 27v4l-2 1h-10l-3-3-1-5h-17l-3 7-3 1h-10l-1-5 10-36 7-23z" fill="#132793"/>
<path transform="translate(1264,519)" d="m0 0 4 1 3 8 13 50 1 7-1 1h-9l-5-2-3-6h-9l-7-1-2 7-1 1h-13l-1-3 10-34 7-23 2-4 2-1z" fill="#132894"/>
<path transform="translate(1393,519)" d="m0 0 5 2 14 54 1 10-8 1-6-2-2-6-18-1-1 8-2 1h-10l-1-1 1-10 11-41 4-12 3-2z" fill="#132894"/>
<path transform="translate(1455,519)" d="m0 0 3 1v65l-1 1h-10l-3-1-1-24h-11l1 11v13l-2 1h-8l-3-1-1-8v-56l1-1h12l1 9v14l10-1 1-3 1-18z" fill="#132995"/>
<path transform="translate(452,527)" d="m0 0h26v1l-20 1 3 2 2 8v5l-1 1h-18l-9 2-3 3v5l10-4h12l9 4 4 6v11l-5 8-3 2-7-3-2-2 1-5 4-6-1-3h-7l-9 3-1 1v9l5 7 13 8-1 5-3 3-7-1-11-6-7-8-4-10 1-8 2-4-1-5-3-5v-7l4-6 10-5 14-1 1-5z" fill="#061A96"/>
<path transform="translate(1444,207)" d="m0 0h18l2 1 1 33v32l-1 7-7 1h-14l-1-2v-71z" fill="#FEFDFE"/>
<path transform="translate(543,531)" d="m0 0 2 4-1 24-2 2h-2v2h-2l2 5h4l-1 4-10 4-10-1-8-4-5-6-3-10 2-9 5-5 7-5 3-1h17l2 1z" fill="#061996"/>
<path transform="translate(952,196)" d="m0 0h19l2 1-2 9-10 20 7-2 6-4 9-1-2 4-5 5-13 12-3 3-9-7-7-7-5-10-1-4v-9l4-6 5-3z" fill="#0650A1"/>
<path transform="translate(1330,520)" d="m0 0h12v48l8-1h10l1 3-3 14-1 1h-28v-64z" fill="#071995"/>
<path transform="translate(333,538)" d="m0 0h13l8 4 10 7v9l-5 5-6 5h-7l-4-5v-5l4-3h3l-1-3-7-1-8 1 2 13 6 9 5 5 1 4-7 3-5-1-7-7-7-11-2-10 3-10 7-7z" fill="#061895"/>
<path transform="translate(1291,520)" d="m0 0h12l1 3-1 45 9-1h10l1 3-3 14-1 1h-27l-1-1-1-17v-29z" fill="#061895"/>
<path transform="translate(948,244)" d="m0 0h12v3l-1 5-6 17-5 7-10 5-11 1-9-4-8-7-4-5v-3l22-6 8-4 5-2 9-2z" fill="#0551A2"/>
<path transform="translate(151,172)" d="m0 0h14l16 3 21 7 16 7 1 2h-76l-3-2-1-9 4-5 3-2z" fill="#0550A1"/>
<path transform="translate(976,243)" d="m0 0h15l10 4 6 4 5 6 3 6v12l-4 7-5-1-10-9-9-7-3 1-1 2-4-1-7-12-6-7v-2z" fill="#0651A2"/>
<path transform="translate(1264,519)" d="m0 0 4 1 3 8 13 50 1 7-4 1 1-3-2-10-8-30-2-4-10-10v-1l-2 18-2 15 7 2-2 2h-13l-2 10 5 1-1 6-2 3h-13l-1-3 10-34 7-23 2-4 2-1z" fill="#061896"/>
<path transform="translate(1018,99)" d="m0 0 4 1 7 9 10 16 18 27 13 21 2 4v4l-6 4h-2l-6-11-10-14-16-26-12-19-5-8-2-2z" fill="#FFFEFF"/>
<path transform="translate(398,519)" d="m0 0h9l8 3-1 3h-2v2h-3l1 58h-14v-56h-18v-1l14-1-4-2v-2z" fill="#132B96"/>
<path transform="translate(1618,520)" d="m0 0h14l10 4 5 5 4 6 3 11v14l-4 12-7 8-3 2-4-1 2-2-2-1 1-12-2-1 2-4 2-10-3-9-7-4 2-5-1-7-3-2-8 1-2-1-1 10h-1v-12z" fill="#061895"/>
<path transform="translate(1393,519)" d="m0 0 5 2 14 54 1 10-8 1-1-3 5-1-1-11-9-32-5-5-3-5-4-2-1 17 2 1h-2l-2 18h6v1h-8l-1-5v-11l-2-1v2h-2l2 15v12l-1 9-2 1h-10l-1-1 1-10 11-41 4-12 3-2z" fill="#061996"/>
<path transform="translate(1580,520)" d="m0 0h12l2 2 8 32 1 9-3-4-7-24v-3l-4-1-2-4h-3l-2 22-2 8h-2v4l-5 2-1 2-1 12h4l-1 7-4 2h-10l-1-5 10-36 7-23z" fill="#061996"/>
<path transform="translate(1036,197)" d="m0 0h11l17 3 12 4 10 5 10 8 7 8 8 16 2 8 1 13-2 15-5 14-4 7-1-2 4-10 2-13v-12l-3-13-7-14-11-13-7-6-16-8-18-4h-15l-9 2v-2z" fill="#FFFEFF"/>
<path transform="translate(1386,224)" d="m0 0h8l6 5 2 5 1 6v8l-2 9-4 5-5 2-8-1-4-4-2-5v-21l4-7z" fill="#0651A2"/>
<path transform="translate(367,519)" d="m0 0 7 1 8 3 1 2-1 2-5 1-1 53-2 2 4 1v-5h1v6h-14v-26l-2-1 2-27 1-2h-15v-1l12-1-6-3v-2z" fill="#132A95"/>
<path transform="translate(577,525)" d="m0 0 6 1 3 2 1 33v24h-14v-57l1-2z" fill="#132995"/>
<path transform="translate(1708,237)" d="m0 0h17l7 2 4 6 1 8-4 6-10 4h-15l-2-2v-23z" fill="#0651A2"/>
<path transform="translate(1521,525)" d="m0 0 4 1 3 3 3 8 1-3h7l1 1v7l-1 4-9 3-2 4v4l3 3 1-1h7l1 1v10l-4 2-4-1v2l-7 2-4 9h-1l-1-7 1-38z" fill="#132793"/>
<path transform="translate(294,209)" d="m0 0h13l1 32-5 5-8 3h-11l-6-3-1-2 8-4 6-8 2-6v-16z" fill="#1065C0"/>
<path transform="translate(1708,196)" d="m0 0h15l7 2 4 4 1 9-6 7-10 2h-9l-4-1-1-3 1-19z" fill="#0550A1"/>
<path transform="translate(937,109)" d="m0 0h32l19 3 17 4 2 3-2 4-8-1-22-5-15-2h-28l-18 4-17 7-11 7-7 7v-3l7-7 13-9 13-6 13-4z" fill="#FFFEFF"/>
<path transform="translate(964,247)" d="m0 0 4 2 7 9 5 9 3 1 2-4 5 2 10 9 8 6 2 2-3 5-6 1-10-9-9-7-3-1 1 18-2-2-5-12-8-15-6-9z" fill="#FFFEFF"/>
<path transform="translate(485,529)" d="m0 0 5 2 1 1 2 20 2-4v36l-2 2-10-1v-54z" fill="#132D98"/>
<path transform="translate(265,567)" d="m0 0 4 1 3 4 15 1v1l-11 1 6 9v2h3l5 6 5 5-2 4-7 4-4-2-6-9-6-8-8-7-5-4 2-4z" fill="#0C239A"/>
<path transform="translate(170,548)" d="m0 0 6 1 8 7 3 6-1 5-4 4-11 3-8-2-2-4v-8l5-8z" fill="#FEE905"/>
<path transform="translate(1482,520)" d="m0 0h14l2 1 4 17v6l-2-2-3-10-4-2-7-1-1 15h3l-3 10-1 7 1 2-3-1-2-10h-7l-1 2 1-9 7-23z" fill="#061895"/>
<path transform="translate(185,252)" d="m0 0 7 1h26l3 3-1 6-5 4-6 2h-12l-8-4-5-5v-6z" fill="#0F64BE"/>
<path transform="translate(1341,520)" d="m0 0h1v48h5v1l-9 2-4 2-2 2-1-12v-20l4-15 3-1 2 3z" fill="#132E98"/>
<path transform="translate(1448,177)" d="m0 0h10l6 2 1 3v12l-3 2h-17l-3-3v-13l1-2z" fill="#FFFEFF"/>
<path transform="translate(80,253)" d="m0 0h7l4 2 1 6-6 5-6 2h-10l-8-4-7-7 3-3h15z" fill="#1063BE"/>
<path transform="translate(1794,223)" d="m0 0h15l6 5 2 4v3l-27 3h-4l-3-11z" fill="#1064C0"/>
<path transform="translate(1302,528)" d="m0 0h1v40l-1-2-5-1-1-14v23l-2 10h-1l-1-11v-19l1-1h-1v-13h2v-2h2l1-9h3l1 3z" fill="#132693"/>
<path transform="translate(900,264)" d="m0 0h6l4 6 8 7 9 4 11-1 7-2-5 5-7 4-5 1h-7l-11-4-7-6-5-10z" fill="#FFFEFF"/>
<path transform="translate(1502,223)" d="m0 0h15l5 3 3 6-1 3-18 2h-8l-3-5-2-5 3-2z" fill="#1063BF"/>
<path transform="translate(938,204)" d="m0 0 1 2v9l4 11 9 10 8 6v2h-12l-8-6-6-10-2-6 1-9z" fill="#FFFEFF"/>
<path transform="translate(841,199)" d="m0 0 5 2 19 10 9 11 3 5-6-2-22-12-14-7z" fill="#FFFEFF"/>
<path transform="translate(546,528)" d="m0 0 6 3v25l-3 7-3 9-2 1-1-3 1-2-4 1-2-2v-4h2l-1-4h4l2-30z" fill="#132893"/>
<path transform="translate(543,151)" d="m0 0 5 2 7 7v5l-10 8-4-1-7-7-1-5 8-8z" fill="#FFFEFF"/>
<path transform="translate(1798,251)" d="m0 0h17l2 4-4 8-6 3h-9l-5-3-1-6 2-4z" fill="#1063BE"/>
<path transform="translate(93,150)" d="m0 0 5 2 7 8-1 5-8 7-5-1-8-8 1-5 7-7z" fill="#FFFEFF"/>
<path transform="translate(1506,251)" d="m0 0h17l1 1v7l-4 5-4 2h-10l-5-3v-8z" fill="#1063BF"/>
<path transform="translate(1455,519)" d="m0 0 3 1v65l-3-1v-23l-1-16-2-7-2-12-3-3-1 18h-1v-20z" fill="#081995"/>
<path transform="translate(1628,538)" d="m0 0 6 2 4 4 2 10-3 8-4 3-5 1-1-27z" fill="#FDE509"/>
<path transform="translate(1072,338)" d="m0 0 8 6 11 10-1 5-5 2-5-1-4-6-10-9 2-4z" fill="#FEFDFD"/>
<path transform="translate(477,208)" d="m0 0h30l5 1v8h-26l-4-7-5-1z" fill="#1165C1"/>
<path transform="translate(203,230)" d="m0 0h30v1l-6 1 2 5-1 3-9-3h-10l-12 1-3-4 1-3z" fill="#1067C2"/>
<path transform="translate(483,531)" d="m0 0h1v38l5-1 2 2 3-3v18l-1 1-10-1z" fill="#08289E"/>
<path transform="translate(70,230)" d="m0 0h32v1l-8 1 1 5h-18l-13 1-3-4 1-3z" fill="#1069C3"/>
<path transform="translate(1291,520)" d="m0 0h12l1 3-2 14h-1l-1-8h-3v7l-1 2h-2v2h-3v27h-1v-29z" fill="#07219B"/>
<path transform="translate(569,234)" d="m0 0h13l6 3-1 4-9 5-5 1-6-5v-6z" fill="#1065C1"/>
<path transform="translate(1330,520)" d="m0 0h11v30h-1l-1-20-2-2h-2l-1 8-2 7-1 20h-1l-1-42z" fill="#051494"/>
<path transform="translate(294,209)" d="m0 0h8l-2 10 1 11-3 7h-7l1-7 1-4v-16z" fill="#0550A1"/>
<path transform="translate(190,208)" d="m0 0h17l9 1-1 4-1 1-24 1-3-2v-2l-14-1v-1z" fill="#1064BF"/>
<path transform="translate(56,208)" d="m0 0 27 1 1 2-1 3-28 1-2-4v-2z" fill="#0F62BC"/>
<path transform="translate(285,544)" d="m0 0h6l-2 7-2 1h-17l-2-4 1-2z" fill="#FCDF12"/>
<path transform="translate(1532,547)" d="m0 0h7v9h2v3l-9 1-2 1v-3l-3-1 1-6z" fill="#051795"/>
<path transform="translate(121,182)" d="m0 0h1l1 10h-82v-1l41-1h32l7-1z" fill="#1165C1"/>
<path transform="translate(209,259)" d="m0 0 6 2 2 4-8 3h-12l-4-2 2-1h4l4-4z" fill="#0752A4"/>
<path transform="translate(619,239)" d="m0 0 6 1 3 6-2 9-5-5-6-5 1-5z" fill="#1165C1"/>
<path transform="translate(1386,546)" d="m0 0 5 1 1 2v13l-8 1 1-15z" fill="#FDE50A"/>
<path transform="translate(376,533)" d="m0 0h2v51h-12v-1l8-1 1-1z" fill="#051494"/>
<path transform="translate(1488,545)" d="m0 0 3 1 1 2v13l-8 1-1-4 3-11z" fill="#FCDF13"/>
<path transform="translate(571,210)" d="m0 0h14l1 1v5l-1 1h-16v-6z" fill="#1065C1"/>
<path transform="translate(1259,544)" d="m0 0h2l2 6v12h-7l-1-4 2-12z" fill="#FDE40C"/>
<path transform="translate(948,244)" d="m0 0h12v3l-1 5-2 6h-1l-1-5-6-1-13 2 1-2 13-3z" fill="#1165C1"/>
<path transform="translate(498,231)" d="m0 0 11 3 3 3v9l-4-1-11-12z" fill="#0F6AC4"/>
<path transform="translate(211,187)" d="m0 0 7 2 1 2h-76v-1l55-1 12-1z" fill="#1165C1"/>
<path transform="translate(1583,545)" d="m0 0 4 2v14l-6 1-2-1 1-8z" fill="#FDE40B"/>
<path transform="translate(1404,554)" d="m0 0 3 1 6 24v6l-8 1-1-3 5-1-1-11-4-14z" fill="#071E99"/>
<path transform="translate(1532,559)" d="m0 0h7l1 1v10l-4 2-4-1z" fill="#FDE707"/>
<path transform="translate(1539,542)" d="m0 0 2 1 2 7v7l1 8-3 6-2-1v-11h2l-1-2-2-1v-7l1-2h-5v-1h5z" fill="#132C97"/>
<path transform="translate(1476,577)" d="m0 0h2v8l-3 1h-11v-7l5-1 1 4h2v-2z" fill="#08219A"/>
<path transform="translate(1532,534)" d="m0 0h7l1 1v7l-1 4-7 1z" fill="#FDE50B"/>
<path transform="translate(913,248)" d="m0 0 9 1 15 3-4 4-6 1-13-7z" fill="#FFFEFF"/>
<path transform="translate(532,546)" d="m0 0 9 1 1 3v10l-4-2-6-9z" fill="#FBDE15"/>
<path transform="translate(1273,545)" d="m0 0h2l4 13 6 25-1 3-3-1 1-2-2-10-7-26z" fill="#082099"/>
<path transform="translate(519,550)" d="m0 0 5 5 6 8 2 2-1 3-9-6-3-5z" fill="#FCE20E"/>
<path transform="translate(1706,197)" d="m0 0h1l2 18 5 2 12 1v1l-7 1h-9l-4-1-1-3z" fill="#1165C1"/>
<path transform="translate(607,209)" d="m0 0h5l2 3-3 4 1 5-1 2 3 1-7 1z" fill="#1067C1"/>
<path transform="translate(978,219)" d="m0 0h5l-2 4-10 10-2-1 4-4-1-3 1-2-2-1z" fill="#0F66C1"/>
<path transform="translate(1420,520)" d="m0 0h12v7l-3-3h-3l-1 2h-2l-1-2-1 17h-1z" fill="#061895"/>
<path transform="translate(611,243)" d="m0 0 2 1-2 4-2 15-1 20h-1v-35z" fill="#1064BF"/>
<path transform="translate(853,347)" d="m0 0 4 1 14 7 16 5 1 2-8-1-16-6-11-7z" fill="#10389F"/>
<path transform="translate(1604,571)" d="m0 0h2l3 10v4l-2 1h-10v-2l6-1 1-8z" fill="#09239A"/>
<path transform="translate(482,242)" d="m0 0 4 1 8 9v3l-4-1-5-4-3-5z" fill="#1067C2"/>
<path transform="translate(441,546)" d="m0 0 11 1-3 2-16 4 1-5z" fill="#F3B457"/>
<path transform="translate(492,185)" d="m0 0 4 2 3 4h-37v-1l25-1 5-2z" fill="#1066C1"/>
<path transform="translate(1960,179)" d="m0 0h1l1 49v4h-2z" fill="#1165C1"/>
<path transform="translate(408,567)" d="m0 0h1l1 18h-14v-1l10-2 1-13z" fill="#092EA1"/>
<path transform="translate(361,245)" d="m0 0 5 1v9l-4-1-2-3v-5z" fill="#0F6AC4"/>
<path transform="translate(343,559)" d="m0 0h2v2l5 2 1 4 2 1h-7l-4-5z" fill="#132C97"/>
<path transform="translate(79,262)" d="m0 0 9 1v2l-4 2h-13v-1l5-1z" fill="#0652A3"/>
<path transform="translate(211,187)" d="m0 0 7 2 1 2h-21l1-2 11-1z" fill="#1069C3"/>
<path transform="translate(534,165)" d="m0 0 6 5-1 3h-7l-1-5z" fill="#1064C0"/>
<path transform="translate(585,570)" d="m0 0h1v14h-13l1-2h10v-10z" fill="#051494"/>
<path transform="translate(1502,542)" d="m0 0 2 3 4 15v6l-2-3-5-17z" fill="#09249A"/>
<path transform="translate(1541,557)" d="m0 0h2l1 8-3 6-2-1v-11h2z" fill="#112B98"/>
<path transform="translate(1854,207)" d="m0 0h22l7 1-3 3h-5v-3l-21 1z" fill="#1165C1"/>
<path transform="translate(1404,554)" d="m0 0 3 1 4 18h-2l-5-16z" fill="#082099"/>
<path transform="translate(452,527)" d="m0 0h26v1l-20 1 2 2-8-1z" fill="#1E3595"/>
<path transform="translate(1509,575)" d="m0 0 3 1 1 8-1 1h-6v-2l2-2z" fill="#071B97"/>
<path transform="translate(294,209)" d="m0 0 3 1 1 6-3 9h-1l-1-15z" fill="#1066C2"/>
<path transform="translate(1281,570)" d="m0 0 2 4 2 11-4 1 1-3-2-10z" fill="#0A299E"/>
<path transform="translate(1598,549)" d="m0 0 3 1 2 7v6l-3-4-2-6z" fill="#08229A"/>
<path transform="translate(435,568)" d="m0 0h1v8l-1 4h-2l-1-7 1-2h2z" fill="#13339B"/>
<path transform="translate(1796,252)" d="m0 0h13l-4 3h-8z" fill="#054FA0"/>
<path transform="translate(585,209)" d="m0 0h4v9h-4z" fill="#0955AA"/>
<path transform="translate(296,209)" d="m0 0h6l-2 7-3-1z" fill="#054F9F"/>
<path transform="translate(1708,260)" d="m0 0h5v2h10v1h-15z" fill="#1165C1"/>
</svg>
